<?xml version="1.0" encoding="UTF-8"?>
<svg xmlns="http://www.w3.org/2000/svg" xmlns:xlink="http://www.w3.org/1999/xlink" width="150px" height="150px" viewBox="0 0 150 150" version="1.1">
<g id="surface1">
<path style=" stroke:none;fill-rule:nonzero;fill:rgb(0%,0%,0%);fill-opacity:1;" d="M 70.257812 7.800781 C 69.769531 7.890625 68.21875 8.066406 66.800781 8.199219 L 64.230469 8.511719 L 64.40625 9.882812 C 64.761719 12.457031 69.859375 23.757812 71.144531 24.824219 C 71.5 25.089844 73.269531 25.089844 76.285156 24.824219 C 78.988281 24.558594 82.269531 24.558594 84.21875 24.777344 C 86.039062 24.957031 87.589844 25.132812 87.589844 25.089844 C 87.632812 25.089844 87.765625 23.539062 87.898438 21.71875 C 88.078125 19.902344 88.386719 17.375 88.609375 16.179688 C 88.828125 14.9375 89.140625 13.078125 89.316406 11.96875 C 89.496094 10.902344 89.714844 9.839844 89.804688 9.664062 C 90.515625 8.554688 75.042969 7.046875 70.257812 7.800781 Z M 70.257812 7.800781 "/>
<path style=" stroke:none;fill-rule:nonzero;fill:rgb(0%,0%,0%);fill-opacity:1;" d="M 58.953125 9.617188 C 54.253906 10.417969 44.238281 14.847656 38.34375 18.707031 C 33.6875 21.71875 33.644531 21.898438 35.726562 23.890625 C 37.589844 25.664062 43.261719 30.140625 43.660156 30.140625 C 43.792969 30.140625 44.726562 30.71875 45.746094 31.472656 C 46.71875 32.179688 47.828125 32.800781 48.09375 32.800781 C 48.402344 32.800781 50.222656 32.003906 52.128906 31.074219 C 55.984375 29.167969 63.429688 26.597656 65.160156 26.597656 C 67.597656 26.597656 67.6875 26.0625 65.691406 22.074219 C 63.429688 17.464844 61.347656 12.542969 60.949219 10.726562 C 60.816406 9.929688 60.503906 9.351562 60.371094 9.351562 C 60.195312 9.398438 59.574219 9.53125 58.953125 9.617188 Z M 58.953125 9.617188 "/>
<path style=" stroke:none;fill-rule:nonzero;fill:rgb(0%,0%,0%);fill-opacity:1;" d="M 92.90625 10.949219 C 92.421875 12.542969 91.710938 17.597656 91.488281 21.054688 C 91.355469 23.003906 91.179688 24.867188 91.089844 25.132812 C 90.867188 25.796875 91.886719 26.375 93.839844 26.730469 C 95.878906 27.128906 101.730469 29.964844 104.789062 32.046875 L 107.402344 33.867188 L 108.332031 32.710938 C 108.867188 32.09375 110.0625 30.585938 111.039062 29.433594 C 112.011719 28.234375 113.742188 26.242188 114.894531 25 C 116.089844 23.757812 117.019531 22.5625 117.019531 22.339844 C 117.019531 21.71875 107.890625 15.867188 104.167969 14.097656 C 100.976562 12.589844 94.503906 10.195312 93.574219 10.195312 C 93.351562 10.195312 93.039062 10.550781 92.90625 10.949219 Z M 92.90625 10.949219 "/>
<path style=" stroke:none;fill-rule:nonzero;fill:rgb(0%,0%,0%);fill-opacity:1;" d="M 28.234375 27.128906 C 24.867188 30.453125 21.675781 34.265625 19.328125 37.808594 C 17.597656 40.46875 12.855469 49.644531 12.855469 50.398438 C 12.855469 51.640625 29.875 59.972656 30.585938 59.042969 C 30.761719 58.867188 31.207031 57.445312 31.648438 55.851562 C 33.421875 49.15625 37.988281 41.621094 42.820312 37.277344 L 45.257812 35.105469 L 43.574219 34.085938 C 41.535156 32.847656 35.683594 28.457031 34.085938 26.996094 C 30.851562 24.023438 31.472656 23.980469 28.234375 27.128906 Z M 28.234375 27.128906 "/>
<path style=" stroke:none;fill-rule:nonzero;fill:rgb(0%,0%,0%);fill-opacity:1;" d="M 117.332031 27.394531 C 115.957031 28.769531 113.742188 31.292969 112.367188 33.023438 L 109.882812 36.125 L 111.613281 37.675781 C 114.363281 40.160156 118.574219 45.347656 120.566406 48.714844 C 121.585938 50.441406 122.652344 51.863281 122.960938 51.863281 C 123.226562 51.863281 124.910156 51.285156 126.640625 50.53125 C 128.414062 49.824219 131.25 48.804688 132.980469 48.316406 C 134.664062 47.828125 136.082031 47.164062 136.082031 46.941406 C 136.082031 46.410156 134.707031 43.617188 132.980469 40.558594 C 130.628906 36.347656 124.378906 28.632812 121.1875 26.019531 L 119.8125 24.867188 Z M 117.332031 27.394531 "/>
<path style=" stroke:none;fill-rule:nonzero;fill:rgb(0%,0%,0%);fill-opacity:1;" d="M 72.03125 45.167969 C 67.773438 45.832031 62.5 47.339844 46.097656 52.480469 C 44.28125 53.015625 41.132812 53.988281 39.140625 54.566406 C 35.636719 55.585938 35.503906 55.671875 35.195312 57.179688 C 34.441406 61.039062 34.664062 63.785156 35.949219 66.488281 C 37.324219 69.414062 38.164062 70.035156 40.824219 70.035156 C 42.597656 70.035156 42.6875 70.078125 41.84375 70.699219 C 41 71.367188 41 71.367188 41.84375 72.03125 C 42.375 72.429688 43.128906 72.5625 43.839844 72.382812 L 44.992188 72.117188 L 43.972656 72.960938 L 42.996094 73.804688 L 43.925781 75.710938 C 44.460938 76.773438 45.613281 78.101562 46.5 78.679688 C 48.359375 79.832031 50.53125 80.453125 50.53125 79.789062 C 50.53125 79.566406 50.355469 79.34375 50.132812 79.34375 C 49.957031 79.34375 49.246094 78.546875 48.582031 77.617188 C 47.519531 76.109375 47.382812 75.621094 47.652344 73.847656 C 47.828125 72.738281 48.183594 71.808594 48.492188 71.808594 C 48.757812 71.808594 48.671875 71.585938 48.316406 71.367188 C 47.960938 71.144531 46.542969 70.878906 45.210938 70.832031 C 43.308594 70.789062 43.707031 70.699219 46.984375 70.433594 C 61.4375 69.28125 64.363281 69.414062 69.28125 71.5 C 71.585938 72.429688 71.808594 73.09375 70.832031 75.84375 C 69.859375 78.722656 67.199219 82.269531 62.144531 87.410156 C 56.605469 93.085938 56.472656 93.394531 59 95.523438 C 61.390625 97.519531 61.96875 97.382812 65.382812 94.148438 C 72.382812 87.5 79.742188 82.269531 86.214844 79.300781 C 87.941406 78.5 89.671875 77.570312 90.117188 77.214844 C 91.046875 76.375 92.242188 76.863281 94.59375 78.902344 C 96.898438 80.941406 97.695312 83.953125 97.382812 89.714844 C 97.25 92.199219 97.03125 94.679688 96.898438 95.300781 C 96.71875 95.921875 96.5 97.074219 96.367188 97.828125 C 96.230469 98.625 95.347656 101.730469 94.328125 104.699219 C 90.601562 116.089844 84.441406 125.355469 73.804688 135.550781 L 68.261719 140.867188 L 72.429688 141.179688 C 82.847656 141.933594 96.585938 138.960938 106.292969 133.820312 C 109.929688 131.871094 115.914062 127.925781 117.289062 126.550781 C 117.554688 126.285156 118.972656 125 120.480469 123.714844 C 123.050781 121.453125 124.601562 118.839844 125.175781 115.867188 C 125.265625 115.335938 125.753906 113.5625 126.242188 111.878906 C 126.773438 110.195312 127.261719 108.199219 127.347656 107.492188 C 127.480469 106.738281 127.703125 105.671875 127.835938 105.054688 C 128.855469 100.796875 129.121094 91.132812 128.28125 86.878906 C 127.925781 85.0625 127.527344 82.847656 127.394531 82.003906 C 126.863281 79.035156 124.421875 71.585938 122.960938 68.484375 C 118.085938 58.113281 110.726562 51.328125 99.691406 46.984375 C 96.320312 45.65625 87.058594 44.328125 81.558594 44.371094 C 78.988281 44.414062 74.734375 44.769531 72.03125 45.167969 Z M 71.367188 51.0625 C 71.367188 51.375 70.964844 52.4375 70.523438 53.457031 C 69.148438 56.472656 65.160156 57.710938 62.765625 55.808594 C 60.949219 54.386719 61.390625 53.191406 64.230469 51.730469 C 66.886719 50.398438 71.367188 50 71.367188 51.0625 Z M 39.007812 58.066406 C 39.539062 58.421875 39.40625 58.511719 38.476562 58.511719 C 37.765625 58.511719 37.234375 58.289062 37.234375 58.066406 C 37.234375 57.492188 38.121094 57.492188 39.007812 58.066406 Z M 39.007812 58.066406 "/>
<path style=" stroke:none;fill-rule:nonzero;fill:rgb(0%,0%,0%);fill-opacity:1;" d="M 134.53125 51.375 C 130.71875 52.4375 125.308594 54.519531 124.601562 55.1875 C 124.113281 55.671875 124.203125 56.25 125.132812 58.820312 C 125.753906 60.460938 126.597656 64.183594 127.039062 67.019531 L 127.835938 72.207031 L 130.71875 73.402344 C 132.359375 74.070312 135.417969 75.441406 137.542969 76.507812 C 139.714844 77.570312 141.621094 78.367188 141.84375 78.234375 C 142.199219 78.015625 142.066406 69.191406 141.667969 66.933594 C 141.535156 66.3125 141.355469 64.804688 141.179688 63.609375 C 140.691406 59.53125 138.078125 50.488281 137.457031 50.578125 C 137.324219 50.621094 135.992188 50.976562 134.53125 51.375 Z M 134.53125 51.375 "/>
<path style=" stroke:none;fill-rule:nonzero;fill:rgb(0%,0%,0%);fill-opacity:1;" d="M 11.347656 54.875 C 11.082031 55.320312 9.398438 63.210938 8.953125 66.046875 C 8.554688 68.660156 8.597656 80.273438 9.042969 83.113281 C 9.574219 86.878906 10.019531 89.140625 10.417969 90.46875 C 10.636719 91.179688 11.125 91.3125 13.652344 91.3125 C 18.925781 91.3125 30.539062 89.582031 31.605469 88.652344 C 31.78125 88.476562 31.648438 87.457031 31.292969 86.390625 C 29.167969 80.007812 28.722656 74.734375 29.433594 66.046875 L 29.742188 62.722656 L 26.949219 61.65625 C 23.359375 60.285156 16.179688 56.914062 14.097656 55.585938 C 12.324219 54.433594 11.703125 54.300781 11.347656 54.875 Z M 11.347656 54.875 "/>
<path style=" stroke:none;fill-rule:nonzero;fill:rgb(0%,0%,0%);fill-opacity:1;" d="M 128.101562 75.796875 C 128.101562 76.019531 128.367188 76.996094 128.722656 77.882812 C 130.585938 82.800781 131.558594 89.316406 131.425781 95.746094 C 131.292969 100.488281 130.761719 103.855469 129.210938 109.929688 C 128.367188 113.164062 128.015625 115.25 128.324219 115.25 C 128.769531 115.25 132.402344 109.351562 134.441406 105.273438 C 138.296875 97.738281 140.824219 90.027344 141.046875 84.882812 C 141.179688 82.003906 141.710938 82.578125 135.859375 79.34375 C 134.398438 78.546875 132.179688 77.347656 130.941406 76.640625 C 128.457031 75.222656 128.101562 75.132812 128.101562 75.796875 Z M 128.101562 75.796875 "/>
<path style=" stroke:none;fill-rule:nonzero;fill:rgb(0%,0%,0%);fill-opacity:1;" d="M 54.210938 86.746094 C 54.34375 87.191406 54.566406 88.078125 54.699219 88.695312 C 54.832031 89.316406 55.40625 90.070312 56.027344 90.382812 C 56.914062 90.867188 57.269531 90.824219 58.246094 90.203125 C 59.707031 89.230469 59.707031 88.652344 58.246094 88.652344 C 57.578125 88.652344 56.558594 88.121094 55.761719 87.324219 C 54.253906 85.816406 53.945312 85.683594 54.210938 86.746094 Z M 54.210938 86.746094 "/>
<path style=" stroke:none;fill-rule:nonzero;fill:rgb(0%,0%,0%);fill-opacity:1;" d="M 32.046875 92.199219 C 30.539062 92.820312 20.699219 94.328125 16.089844 94.679688 C 13.828125 94.859375 11.96875 95.125 11.96875 95.257812 C 12.011719 97.25 16 105.984375 18.972656 110.59375 C 22.652344 116.269531 28.015625 122.339844 29.34375 122.339844 C 30.628906 122.339844 37.988281 119.726562 42.332031 117.6875 C 46.542969 115.734375 54.078125 111.039062 54.078125 110.417969 C 54.078125 110.195312 52.792969 109.265625 51.195312 108.378906 C 45.699219 105.320312 38.429688 98.757812 35.0625 93.839844 C 33.554688 91.621094 33.554688 91.621094 32.046875 92.199219 Z M 32.046875 92.199219 "/>
<path style=" stroke:none;fill-rule:nonzero;fill:rgb(0%,0%,0%);fill-opacity:1;" d="M 88.875 108.421875 C 87.898438 109 84.53125 110.328125 81.339844 111.347656 C 75.621094 113.253906 75.53125 113.253906 69.371094 113.210938 C 64.9375 113.210938 62.5 112.988281 60.769531 112.457031 L 58.421875 111.703125 L 56.425781 113.164062 C 55.320312 113.917969 54.078125 114.804688 53.679688 115.027344 C 53.28125 115.292969 52.082031 116.089844 50.976562 116.800781 C 46.808594 119.503906 34.664062 125 32.933594 125 C 31.648438 125 32.578125 126.0625 36.257812 128.769531 C 42.597656 133.464844 52.304688 137.941406 60.019531 139.671875 C 62.324219 140.160156 62.457031 140.160156 64.097656 138.917969 C 67.953125 136.082031 75.710938 129.386719 77.792969 127.171875 C 81.738281 122.917969 86.125 117.289062 87.589844 114.628906 C 87.855469 114.097656 88.828125 112.367188 89.714844 110.769531 C 91.886719 106.738281 91.84375 106.648438 88.875 108.421875 Z M 88.875 108.421875 "/>
</g>
</svg>
