<?xml version="1.0" standalone="no"?>
<!DOCTYPE svg PUBLIC "-//W3C//DTD SVG 20010904//EN"
 "http://www.w3.org/TR/2001/REC-SVG-20010904/DTD/svg10.dtd">
<svg version="1.0" xmlns="http://www.w3.org/2000/svg"
 width="338.000000pt" height="566.000000pt" viewBox="0 0 338.000000 566.000000"
 preserveAspectRatio="xMidYMid meet">

<g transform="translate(0.000000,566.000000) scale(0.100000,-0.100000)"
fill="#000000" stroke="none">
<path d="M1585 4344 c-11 -2 -46 -6 -78 -9 l-58 -7 4 -31 c8 -58 123 -313 152
-337 8 -6 48 -6 116 0 61 6 135 6 179 1 41 -4 76 -8 76 -7 1 0 4 35 7 76 4 41
11 98 16 125 5 28 12 70 16 95 4 24 9 48 11 52 16 25 -333 59 -441 42z"/>
<path d="M1330 4303 c-106 -18 -332 -118 -465 -205 -105 -68 -106 -72 -59
-117 42 -40 170 -141 179 -141 3 0 24 -13 47 -30 22 -16 47 -30 53 -30 7 0 48
18 91 39 87 43 255 101 294 101 55 0 57 12 12 102 -51 104 -98 215 -107 256
-3 18 -10 31 -13 31 -4 -1 -18 -4 -32 -6z"/>
<path d="M2096 4273 c-11 -36 -27 -150 -32 -228 -3 -44 -7 -86 -9 -92 -5 -15
18 -28 62 -36 46 -9 178 -73 247 -120 l59 -41 21 26 c12 14 39 48 61 74 22 27
61 72 87 100 27 28 48 55 48 60 0 14 -206 146 -290 186 -72 34 -218 88 -239
88 -5 0 -12 -8 -15 -17z"/>
<path d="M637 3908 c-76 -75 -148 -161 -201 -241 -39 -60 -146 -267 -146 -284
0 -28 384 -216 400 -195 4 4 14 36 24 72 40 151 143 321 252 419 l55 49 -38
23 c-46 28 -178 127 -214 160 -73 67 -59 68 -132 -3z"/>
<path d="M2647 3902 c-31 -31 -81 -88 -112 -127 l-56 -70 39 -35 c62 -56 157
-173 202 -249 23 -39 47 -71 54 -71 6 0 44 13 83 30 40 16 104 39 143 50 38
11 70 26 70 31 0 12 -31 75 -70 144 -53 95 -194 269 -266 328 l-31 26 -56 -57z"/>
<path d="M1625 3501 c-96 -15 -215 -49 -585 -165 -41 -12 -112 -34 -157 -47
-79 -23 -82 -25 -89 -59 -17 -87 -12 -149 17 -210 31 -66 50 -80 110 -80 40 0
42 -1 23 -15 -19 -15 -19 -15 0 -30 12 -9 29 -12 45 -8 l26 6 -23 -19 -22 -19
21 -43 c12 -24 38 -54 58 -67 42 -26 91 -40 91 -25 0 5 -4 10 -9 10 -4 0 -20
18 -35 39 -24 34 -27 45 -21 85 4 25 12 46 19 46 6 0 4 5 -4 10 -8 5 -40 11
-70 12 -43 1 -34 3 40 9 326 26 392 23 503 -24 52 -21 57 -36 35 -98 -22 -65
-82 -145 -196 -261 -125 -128 -128 -135 -71 -183 54 -45 67 -42 144 31 158
150 324 268 470 335 39 18 78 39 88 47 21 19 48 8 101 -38 52 -46 70 -114 63
-244 -3 -56 -8 -112 -11 -126 -4 -14 -9 -40 -12 -57 -3 -18 -23 -88 -46 -155
-84 -257 -223 -466 -463 -696 l-125 -120 94 -7 c235 -17 545 50 764 166 82 44
217 133 248 164 6 6 38 35 72 64 58 51 93 110 106 177 2 12 13 52 24 90 12 38
23 83 25 99 3 17 8 41 11 55 23 96 29 314 10 410 -8 41 -17 91 -20 110 -12 67
-67 235 -100 305 -110 234 -276 387 -525 485 -76 30 -285 60 -409 59 -58 -1
-154 -9 -215 -18z m-15 -133 c0 -7 -9 -31 -19 -54 -31 -68 -121 -96 -175 -53
-41 32 -31 59 33 92 60 30 161 39 161 15z m-730 -158 c12 -8 9 -10 -12 -10
-16 0 -28 5 -28 10 0 13 20 13 40 0z"/>
<path d="M3035 3361 c-86 -24 -208 -71 -224 -86 -11 -11 -9 -24 12 -82 14 -37
33 -121 43 -185 l18 -117 65 -27 c37 -15 106 -46 154 -70 49 -24 92 -42 97
-39 8 5 5 204 -4 255 -3 14 -7 48 -11 75 -11 92 -70 296 -84 294 -3 -1 -33 -9
-66 -18z"/>
<path d="M256 3282 c-6 -10 -44 -188 -54 -252 -9 -59 -8 -321 2 -385 12 -85
22 -136 31 -166 5 -16 16 -19 73 -19 119 0 381 39 405 60 4 4 1 27 -7 51 -48
144 -58 263 -42 459 l7 75 -63 24 c-81 31 -243 107 -290 137 -40 26 -54 29
-62 16z"/>
<path d="M2890 2810 c0 -5 6 -27 14 -47 42 -111 64 -258 61 -403 -3 -107 -15
-183 -50 -320 -19 -73 -27 -120 -20 -120 10 0 92 133 138 225 87 170 144 344
149 460 3 65 15 52 -117 125 -33 18 -83 45 -111 61 -56 32 -64 34 -64 19z"/>
<path d="M1223 2563 c3 -10 8 -30 11 -44 3 -14 16 -31 30 -38 20 -11 28 -10
50 4 33 22 33 35 0 35 -15 0 -38 12 -56 30 -34 34 -41 37 -35 13z"/>
<path d="M723 2440 c-34 -14 -256 -48 -360 -56 -51 -4 -93 -10 -93 -13 1 -45
91 -242 158 -346 83 -128 204 -265 234 -265 29 0 195 59 293 105 95 44 265
150 265 164 0 5 -29 26 -65 46 -124 69 -288 217 -364 328 -34 50 -34 50 -68
37z"/>
<path d="M2005 2074 c-22 -13 -98 -43 -170 -66 -129 -43 -131 -43 -270 -42
-100 0 -155 5 -194 17 l-53 17 -45 -33 c-25 -17 -53 -37 -62 -42 -9 -6 -36
-24 -61 -40 -94 -61 -368 -185 -407 -185 -29 0 -8 -24 75 -85 143 -106 362
-207 536 -246 52 -11 55 -11 92 17 87 64 262 215 309 265 89 96 188 223 221
283 6 12 28 51 48 87 49 91 48 93 -19 53z"/>
</g>
</svg>
